<?xml version="1.0" encoding="UTF-8"?>
<!-- spellchecker: ignore dasharray -->
<svg xmlns="http://www.w3.org/2000/svg" viewBox="0 0 880 450" width="880" height="450"
     font-family="Arial, Helvetica, sans-serif" font-size="11">

  <!-- Background -->
  <rect width="880" height="450" fill="#f4f4f4"/>

  <!-- Title -->
  <text x="440" y="26" text-anchor="middle" font-size="15" font-weight="bold" fill="#222">Life Check — Wiring Diagram</text>
  <text x="440" y="42" text-anchor="middle" font-size="9" fill="#666">GPIO 17 (BCM) = physical pin 11 · sensor 5 V, Pi GPIO 3.3 V → level shifter required</text>

  <!-- ====== WIRES (drawn first, underneath boxes) ====== -->

  <!-- 3.3V (orange): Pi 3.3V → Shifter LV ref
       Crosses GND horizontal at (275,193) — no dot, wires do not connect there -->
  <polyline points="165,135 275,135 275,208 288,208"
            fill="none" stroke="#d06000" stroke-width="2.5"/>

  <!-- GPIO 17 (blue): Pi GPIO 17 → Shifter LV CH1 -->
  <polyline points="165,230 260,230 260,270 288,270"
            fill="none" stroke="#2255cc" stroke-width="2.5"/>

  <!-- Signal (blue): Receiver signal → Shifter HV CH1
       Routed at x=480 (clear of 5V bus at x=545 and GND bus at x=535) -->
  <polyline points="593,358 480,358 480,270 470,270"
            fill="none" stroke="#2255cc" stroke-width="2.5"/>

  <!-- 5V (red) bus -->
  <!-- Pi to bus -->
  <line x1="165" y1="160" x2="545" y2="160" stroke="#cc1111" stroke-width="2.5"/>
  <!-- Bus vertical -->
  <line x1="545" y1="128" x2="545" y2="305" stroke="#cc1111" stroke-width="2.5"/>
  <!-- Branch: Transmitter VCC -->
  <line x1="545" y1="128" x2="593" y2="128" stroke="#cc1111" stroke-width="2.5"/>
  <!-- Branch: Shifter HV ref (goes left) -->
  <line x1="545" y1="208" x2="470" y2="208" stroke="#cc1111" stroke-width="2.5"/>
  <!-- Branch: Receiver VCC -->
  <line x1="545" y1="305" x2="593" y2="305" stroke="#cc1111" stroke-width="2.5"/>

  <!-- GND (dark) bus -->
  <!-- Pi to main horizontal -->
  <line x1="165" y1="193" x2="535" y2="193" stroke="#333" stroke-width="2.5"/>
  <!-- Branch: Shifter LV GND (drops down at x=270, clear of GPIO17 at x=260) -->
  <polyline points="270,193 270,238 288,238" fill="none" stroke="#333" stroke-width="2.5"/>
  <!-- Bus vertical -->
  <line x1="535" y1="155" x2="535" y2="332" stroke="#333" stroke-width="2.5"/>
  <!-- Branch: Transmitter GND -->
  <line x1="535" y1="155" x2="593" y2="155" stroke="#333" stroke-width="2.5"/>
  <!-- Branch: Shifter HV GND (goes left) -->
  <line x1="535" y1="238" x2="470" y2="238" stroke="#333" stroke-width="2.5"/>
  <!-- Branch: Receiver GND -->
  <line x1="535" y1="332" x2="593" y2="332" stroke="#333" stroke-width="2.5"/>

  <!-- ====== COMPONENT BOXES (drawn over wires) ====== -->

  <!-- Raspberry Pi Zero -->
  <rect x="15" y="68" width="150" height="270" rx="7" fill="#1e6b1e" stroke="#0d4b0d" stroke-width="2"/>

  <!-- Logic Level Shifter -->
  <rect x="288" y="148" width="182" height="185" rx="6" fill="#f0ebff" stroke="#7744bb" stroke-width="2"/>

  <!-- Transmitter -->
  <rect x="593" y="88" width="270" height="98" rx="6" fill="#fff2f2" stroke="#cc2222" stroke-width="2"/>

  <!-- Receiver -->
  <rect x="593" y="265" width="270" height="118" rx="6" fill="#f2fff2" stroke="#229922" stroke-width="2"/>

  <!-- ====== LABELS ====== -->

  <!-- Pi Zero -->
  <text x="90" y="89" text-anchor="middle" fill="white" font-size="12" font-weight="bold">Raspberry Pi Zero</text>
  <text x="90" y="103" text-anchor="middle" fill="#aaffaa" font-size="9">Pi OS Bookworm</text>
  <text x="157" y="139" text-anchor="end" fill="#ffcc88" font-size="9">3.3V · pin 1</text>
  <text x="157" y="164" text-anchor="end" fill="#ffaaaa" font-size="9">5V · pin 2</text>
  <text x="157" y="197" text-anchor="end" fill="#cccccc" font-size="9">GND · pin 6</text>
  <text x="157" y="234" text-anchor="end" fill="#aabbff" font-size="9">GPIO 17 · pin 11</text>

  <!-- Logic Level Shifter -->
  <text x="379" y="170" text-anchor="middle" fill="#442288" font-size="11" font-weight="bold">Logic Level Shifter</text>
  <text x="379" y="184" text-anchor="middle" fill="#442288" font-size="9">(BSS138-based)</text>
  <text x="318" y="200" text-anchor="middle" fill="#2255cc" font-size="10" font-weight="bold">LV</text>
  <text x="440" y="200" text-anchor="middle" fill="#cc2222" font-size="10" font-weight="bold">HV</text>
  <line x1="379" y1="193" x2="379" y2="325" stroke="#7744bb" stroke-width="1" stroke-dasharray="4,3"/>
  <!-- LV pin labels (right of left edge) -->
  <text x="295" y="212" fill="#442288" font-size="9">LV 3.3V</text>
  <text x="295" y="242" fill="#442288" font-size="9">GND</text>
  <text x="295" y="274" fill="#442288" font-size="9">CH1 →</text>
  <!-- HV pin labels (right of divider) -->
  <text x="385" y="212" fill="#442288" font-size="9">HV 5V</text>
  <text x="385" y="242" fill="#442288" font-size="9">GND</text>
  <text x="385" y="274" fill="#442288" font-size="9">← CH1</text>

  <!-- Transmitter -->
  <text x="728" y="110" text-anchor="middle" fill="#880000" font-size="12" font-weight="bold">Transmitter</text>
  <text x="728" y="126" text-anchor="middle" fill="#880000" font-size="9">DFRobot IR TX — red PCB</text>
  <text x="608" y="132" fill="#880000" font-size="9">VCC (red wire)</text>
  <text x="608" y="159" fill="#880000" font-size="9">GND (black wire)</text>
  <text x="728" y="178" text-anchor="middle" fill="#aaaaaa" font-size="8" font-style="italic">green wire: floating, unused</text>

  <!-- Receiver -->
  <text x="728" y="287" text-anchor="middle" fill="#006600" font-size="12" font-weight="bold">Receiver</text>
  <text x="728" y="303" text-anchor="middle" fill="#006600" font-size="9">DFRobot IR RX — black PCB</text>
  <text x="608" y="309" fill="#006600" font-size="9">VCC (red wire)</text>
  <text x="608" y="336" fill="#006600" font-size="9">GND (black wire)</text>
  <text x="608" y="362" fill="#006600" font-size="9">Signal (blue wire) — NPN open-collector</text>

  <!-- ====== CONNECTION DOTS ====== -->

  <!-- Pi right-edge -->
  <circle cx="165" cy="135" r="5" fill="#d06000"/>
  <circle cx="165" cy="160" r="5" fill="#cc1111"/>
  <circle cx="165" cy="193" r="5" fill="#333"/>
  <circle cx="165" cy="230" r="5" fill="#2255cc"/>

  <!-- Shifter LV (left edge) -->
  <circle cx="288" cy="208" r="5" fill="#d06000"/>
  <circle cx="288" cy="238" r="5" fill="#333"/>
  <circle cx="288" cy="270" r="5" fill="#2255cc"/>

  <!-- Shifter HV (right edge) -->
  <circle cx="470" cy="208" r="5" fill="#cc1111"/>
  <circle cx="470" cy="238" r="5" fill="#333"/>
  <circle cx="470" cy="270" r="5" fill="#2255cc"/>

  <!-- Transmitter left edge -->
  <circle cx="593" cy="128" r="5" fill="#cc1111"/>
  <circle cx="593" cy="155" r="5" fill="#333"/>

  <!-- Receiver left edge -->
  <circle cx="593" cy="305" r="5" fill="#cc1111"/>
  <circle cx="593" cy="332" r="5" fill="#333"/>
  <circle cx="593" cy="358" r="5" fill="#2255cc"/>

  <!-- 5V bus junctions -->
  <circle cx="545" cy="160" r="4" fill="#cc1111"/>
  <circle cx="545" cy="128" r="4" fill="#cc1111"/>
  <circle cx="545" cy="208" r="4" fill="#cc1111"/>
  <circle cx="545" cy="305" r="4" fill="#cc1111"/>

  <!-- GND bus junctions -->
  <circle cx="270" cy="193" r="4" fill="#333"/>
  <circle cx="535" cy="193" r="4" fill="#333"/>
  <circle cx="535" cy="155" r="4" fill="#333"/>
  <circle cx="535" cy="238" r="4" fill="#333"/>
  <circle cx="535" cy="332" r="4" fill="#333"/>

  <!-- ====== LEGEND ====== -->
  <rect x="15" y="360" width="262" height="78" rx="4" fill="white" stroke="#cccccc" stroke-width="1"/>
  <text x="141" y="377" text-anchor="middle" font-size="10" font-weight="bold" fill="#333">Legend</text>
  <line x1="28" y1="392" x2="65" y2="392" stroke="#cc1111" stroke-width="2.5"/>
  <text x="72" y="396" fill="#333" font-size="10">5V</text>
  <line x1="28" y1="410" x2="65" y2="410" stroke="#333" stroke-width="2.5"/>
  <text x="72" y="414" fill="#333" font-size="10">GND</text>
  <line x1="135" y1="392" x2="172" y2="392" stroke="#d06000" stroke-width="2.5"/>
  <text x="179" y="396" fill="#333" font-size="10">3.3V reference</text>
  <line x1="135" y1="410" x2="172" y2="410" stroke="#2255cc" stroke-width="2.5"/>
  <text x="179" y="414" fill="#333" font-size="10">GPIO 17 / signal</text>
  <text x="28" y="430" fill="#777" font-size="8" font-style="italic">Wires crossing without a dot do not connect.</text>

</svg>
